<?xml version="1.0"?>
<svg xmlns="http://www.w3.org/2000/svg" xmlns:xlink="http://www.w3.org/1999/xlink" version="1.1" id="Capa_1" x="0px" y="0px" viewBox="0 0 511.999 511.999" style="enable-background:new 0 0 511.999 511.999;" xml:space="preserve" width="512px" height="512px" class=""><g><path style="fill:#F59372" d="M511.671,174.616l-11.186-46.019c-0.582-2.393-1.915-4.536-3.806-6.114l-33.822-28.239  c-2.053-1.716-4.53-2.521-7.012-2.597l0,0c-7.321,0.016-55.31-0.012-60.947,0l0,0c-2.677,0.069-5.341,1.148-7.471,3.099  l-36.446,33.382c-1.998,1.831-3.287,4.308-3.638,6.995l-5.427,41.549c-0.822,6.301,3.618,12.076,9.92,12.9  c6.285,0.82,12.074-3.602,12.9-9.92l4.883-37.389l25.338-23.209l0.179,81.485l60.947-0.134l-0.18-81.99l23.116,19.3l10.291,42.336  c1.502,6.183,7.727,9.962,13.898,8.463C509.384,187.015,513.172,180.792,511.671,174.616z" data-original="#FFB69E" class="active-path" data-old_color="#FFB69E"/><path style="fill:#EB7D16" d="M485.977,113.549l-23.121-19.304c-2.053-1.716-4.53-2.521-7.012-2.597l0,0  c-2.546,0.005-10.011-0.02-18.901,0c0.018,6.045-3.866,12.071-11.646,12.071c-7.771,0-11.65-6.043-11.648-12.071  c-9.165,0.02-16.717-0.004-18.751,0l0,0c-2.677,0.069-5.341,1.148-7.471,3.099l-24.671,22.598l18.13,14.602  c2.877-2.635,8.864-8.119,14.073-12.89l0.179,81.485l60.947-0.134l-0.18-81.99c1.126,0.941,13.145,10.975,14.775,12.336  L485.977,113.549z" data-original="#50555A" class="" data-old_color="#50555A"/><path style="fill:#5F6E9B;" d="M377.545,268.769l-18.925-48.233c-2.154-5.491-0.584-11.742,3.909-15.563l37.567-31.94  c5.811-4.94,14.523-4.234,19.463,1.575c4.94,5.81,4.234,14.524-1.575,19.463l-30.056,25.554l15.324,39.057  c2.784,7.099-0.712,15.111-7.811,17.897C388.344,279.365,380.331,275.868,377.545,268.769z" data-original="#5F6E9B" class=""/><path style="fill:#414B82;" d="M458.627,265.338c-6.953-3.133-10.048-11.309-6.915-18.262l20.481-45.445l-30.797-1.6  c-7.615-0.396-13.468-6.89-13.072-14.506c0.396-7.615,6.868-13.467,14.506-13.072l50.967,2.649  c4.553,0.237,8.696,2.706,11.071,6.599c2.374,3.892,2.674,8.706,0.801,12.863l-28.779,63.858  C473.77,265.344,465.609,268.485,458.627,265.338z" data-original="#414B82" class=""/><circle style="fill:#F59372" cx="425.299" cy="58.893" r="23.847" data-original="#FFB69E" class="active-path" data-old_color="#FFB69E"/><path style="fill:#87AFB9;" d="M361.654,187.069c-4.535,0-8.213-3.675-8.217-8.21c-0.003-4.538,3.673-8.22,8.21-8.224l130.643-0.104  c0.003,0,0.005,0,0.007,0c4.535,0,8.213,3.675,8.217,8.21c0.003,4.538-3.673,8.22-8.21,8.224l-130.643,0.104  C361.658,187.069,361.656,187.069,361.654,187.069z" data-original="#87AFB9" class=""/><path style="fill:#373C41;" d="M441.348,329.414c0.006,7.925-6.413,14.355-14.339,14.362c-7.925,0.006-14.355-6.413-14.362-14.339  l-0.043-53.903c-0.006-7.925,6.413-14.355,14.339-14.362c7.925-0.006,14.355,6.413,14.362,14.339L441.348,329.414z" data-original="#373C41" class=""/><path style="fill:#04458F" d="M472.194,290.44c0.005,5.665-4.584,10.261-10.25,10.267l-69.88,0.056  c-5.665,0.005-10.262-4.584-10.267-10.25l-0.04-50.093c-0.02-24.963,20.2-45.215,45.162-45.234  c24.963-0.02,45.215,20.2,45.234,45.162L472.194,290.44z" data-original="#CD2D23" class="" data-old_color="#CD2D23"/><g>
	<path style="fill:#04458F" d="M448.694,200.751c-6.46-3.552-13.88-5.573-21.773-5.567c-7.855,0.006-15.238,2.018-21.671,5.548   c4.087,7.834,12.279,13.186,21.727,13.186C436.416,213.919,444.604,208.575,448.694,200.751z" data-original="#BD2920" class="" data-old_color="#BD2920"/>
	<path style="fill:#04458F" d="M472.154,240.346c-0.02-24.944-20.242-45.151-45.178-45.161v105.549l34.969-0.028   c5.665-0.005,10.254-4.601,10.25-10.267L472.154,240.346z" data-original="#BD2920" class="" data-old_color="#BD2920"/>
</g><circle style="fill:#C8E6EB;" cx="426.973" cy="184.412" r="24.496" data-original="#C8E6EB"/><circle style="fill:#FFD23C;" cx="426.973" cy="184.412" r="13.879" data-original="#FFD23C" class=""/><path style="fill:#FFE65A;" d="M426.775,170.54c-7.571,0.109-13.678,6.272-13.678,13.869c0,7.597,6.106,13.761,13.678,13.869V170.54  z" data-original="#FFE65A" class=""/><g>
	<path style="fill:#F59372" d="M345.596,148.506l-3.679,28.167c-0.822,6.301,3.618,12.076,9.92,12.9   c6.285,0.82,12.074-3.602,12.9-9.92l4.068-31.147H345.596z" data-original="#FFB69E" class="active-path" data-old_color="#FFB69E"/>
	<path style="fill:#F59372" d="M505.324,148.506h-23.682l7.668,31.545c1.502,6.183,7.727,9.962,13.898,8.463   c6.175-1.501,9.964-7.724,8.462-13.898L505.324,148.506z" data-original="#FFB69E" class="active-path" data-old_color="#FFB69E"/>
</g><polygon style="fill:#A0EBFF;" points="344.432,288.688 75.882,288.688 96.153,169.244 324.162,169.244 " data-original="#A0EBFF" class=""/><g>
	<ellipse style="fill:#F59372" cx="265.591" cy="197.868" rx="20.902" ry="23.172" data-original="#FFB69E" class="active-path" data-old_color="#FFB69E"/>
	<path style="fill:#F59372" d="M316.446,254.744c-0.065-14.515-10.772-26.324-23.867-26.324c-18.043,0-36.101,0-54.143,0   c-13.095,0-23.801,11.809-23.866,26.322l-0.087,21.081h102.05L316.446,254.744z" data-original="#FFB69E" class="active-path" data-old_color="#FFB69E"/>
</g><path style="fill:#64AFFF;" d="M316.446,254.744c-0.065-14.515-10.772-26.324-23.867-26.324h-14.506  c-0.177,6.826-6.013,12.573-12.872,12.573c-6.883,0-12.697-5.723-12.872-12.573h-13.893c-13.095,0-23.801,11.809-23.866,26.322  l-0.087,21.082h102.05L316.446,254.744z" data-original="#64AFFF"/><path style="fill:#373C41;" d="M227.657,212.136h-35.379c-2.919,0-5.285-2.366-5.285-5.285v-8.567c0-2.919,2.366-5.285,5.285-5.285  h35.379c2.919,0,5.285,2.366,5.285,5.285v8.567C232.942,209.769,230.575,212.136,227.657,212.136z" data-original="#373C41" class=""/><g style="opacity:0.38;">
	<polygon style="fill:#FFFFFF;" points="192.399,183.698 166.722,183.698 116.721,275.869 142.397,275.869  " data-original="#FFFFFF" class=""/>
</g><g style="opacity:0.36;">
	<polygon style="fill:#FFFFFF;" points="220.778,183.698 205.913,183.698 155.911,275.869 170.776,275.869  " data-original="#FFFFFF" class=""/>
</g><path style="fill:#373C41;" d="M76.091,476.949c-6.535,0-11.834-5.298-11.834-11.834v-95.732c0-18.096,14.67-32.766,32.767-32.766  s32.767,14.67,32.767,32.766v95.732c0,6.535-5.298,11.834-11.834,11.834H76.091z" data-original="#373C41" class=""/><path style="fill:#272A2E;" d="M302.274,476.949c-6.535,0-11.834-5.298-11.834-11.834V366.77c0-16.653,14.67-30.153,32.767-30.153  s32.767,13.5,32.767,30.153v98.345c0,6.535-5.298,11.834-11.834,11.834H302.274z" data-original="#272A2E" class=""/><g>
	<rect x="76.198" y="426.941" style="fill:#EB7D16" width="13.271" height="50.012" data-original="#50555A" class="" data-old_color="#50555A"/>
	<rect x="104.58" y="426.941" style="fill:#EB7D16" width="13.271" height="50.012" data-original="#50555A" class="" data-old_color="#50555A"/>
	<rect x="302.38" y="426.941" style="fill:#EB7D16" width="13.271" height="50.012" data-original="#50555A" class="" data-old_color="#50555A"/>
	<rect x="330.766" y="426.941" style="fill:#EB7D16" width="13.271" height="50.012" data-original="#50555A" class="" data-old_color="#50555A"/>
</g><path style="fill:#04458F" d="M73.679,304.812c-2.77,0-5.534-1.093-7.591-3.262l-29.186-30.773  c-3.975-4.191-3.799-10.811,0.391-14.787c4.192-3.976,10.812-3.8,14.787,0.391l29.186,30.773c3.975,4.191,3.799,10.811-0.391,14.787  C78.852,303.86,76.263,304.812,73.679,304.812z" data-original="#D72846" class="" data-old_color="#D72846"/><path style="fill:#F75C66;" d="M11.334,277.004H47.75c6.26,0,11.334-5.075,11.334-11.334v-18.374c0-6.26-5.075-11.334-11.334-11.334  H11.334C5.075,235.963,0,241.037,0,247.297v18.374C0,271.93,5.075,277.004,11.334,277.004z" data-original="#F75C66" class=""/><path style="fill:#04458F" d="M339.061,301.941c-4.191-3.975-4.367-10.595-0.392-14.787l29.186-30.773  c3.975-4.191,10.595-4.368,14.787-0.391c4.191,3.975,4.367,10.595,0.392,14.787l-29.186,30.773  C349.873,305.741,343.251,305.917,339.061,301.941z" data-original="#D72846" class="" data-old_color="#D72846"/><path style="fill:#C12020" d="M408.601,277.004h-36.416c-6.26,0-11.334-5.075-11.334-11.334v-18.374  c0-6.26,5.075-11.334,11.334-11.334h36.416c6.26,0,11.334,5.075,11.334,11.334v18.374  C419.935,271.93,414.861,277.004,408.601,277.004z" data-original="#E64B55" class="" data-old_color="#E64B55"/><path style="fill:#04458F" d="M360.623,298.368c1.548,8.301-4.828,15.988-13.281,15.988H72.889c-4.017,0-7.825-1.788-10.392-4.877  c-2.567-3.089-3.626-7.161-2.89-11.111L83.98,167.71c1.193-6.395,6.775-11.033,13.281-11.033h225.707  c6.506,0,12.088,4.637,13.281,11.033L360.623,298.368z M89.152,287.335h241.926l-19.333-103.637h-203.26L89.152,287.335z" data-original="#D72846" class="" data-old_color="#D72846"/><path style="fill:#696E73;" d="M265.782,241.545c-19.704,0-35.734,16.03-35.734,35.735c0,19.704,16.03,35.734,35.734,35.734  s35.735-16.03,35.735-35.734C301.516,257.574,285.486,241.545,265.782,241.545z M265.782,301.647  c-13.437,0-24.369-10.931-24.369-24.369c0-8.08,3.958-15.241,10.033-19.67c3.58-2.61,8.653-0.069,8.653,4.406  c-0.252,4.379,0.745,7.107-1.466,10.238c-1.004,1.421-1.594,3.153-1.594,5.025c0,2.656,1.189,5.031,3.059,6.636v5.932h11.365v-5.932  c1.87-1.603,3.06-3.979,3.06-6.636c0-1.872-0.591-3.605-1.594-5.025c-2.213-3.134-1.215-5.911-1.466-10.238  c0-4.452,5.069-7.02,8.653-4.405c6.076,4.429,10.034,11.59,10.034,19.67C290.151,290.716,279.22,301.647,265.782,301.647z" data-original="#696E73"/><path style="fill:#373C41;" d="M265.783,313.013c-19.705,0-35.735-16.03-35.735-35.735c0-19.704,16.03-35.734,35.735-35.734  c19.704,0,35.734,16.03,35.734,35.734S285.485,313.013,265.783,313.013z M265.783,252.91c-13.437,0-24.369,10.931-24.369,24.368  s10.932,24.369,24.369,24.369s24.368-10.931,24.368-24.369C290.151,263.841,279.22,252.91,265.783,252.91z" data-original="#373C41" class=""/><g style="opacity:0.22;">
	<path d="M129.79,448.257v-78.874c0-18.096-14.67-32.767-32.767-32.767s-32.767,14.67-32.767,32.767v66.712L129.79,448.257z" data-original="#000000"/>
	<path d="M355.974,448.257v-78.874c0-18.096-14.67-32.767-32.767-32.767s-32.767,14.67-32.767,32.767v66.712L355.974,448.257z" data-original="#000000"/>
</g><path style="fill:#C12020" d="M361.034,426.937H59.086c-12.795,0-23.168-10.373-23.168-23.168V337.14  c0-33.839,27.431-61.27,61.27-61.27h225.853c33.839,0,61.27,27.431,61.27,61.27v66.518  C384.312,416.514,373.89,426.937,361.034,426.937z" data-original="#E64B55" class="" data-old_color="#E64B55"/><path style="fill:#EB7D16" d="M383.701,408.947H36.507c2.353,10.301,11.565,17.989,22.579,17.989h301.948  C372.069,426.936,381.305,419.254,383.701,408.947z" data-original="#50555A" class="" data-old_color="#50555A"/><g>
	<path style="fill:#04458F" d="M260.469,408.947h-99.416c-6.512,0-11.792-5.279-11.792-11.792v-48.204   c0-6.512,5.279-11.792,11.792-11.792h99.416c6.512,0,11.792,5.279,11.792,11.792v48.204   C272.262,403.668,266.982,408.947,260.469,408.947z" data-original="#D72846" class="" data-old_color="#D72846"/>
	<ellipse style="fill:#04458F" cx="96.157" cy="359.681" rx="28.745" ry="28.762" data-original="#D72846" class="" data-old_color="#D72846"/>
	<ellipse style="fill:#04458F" cx="324.078" cy="359.681" rx="28.745" ry="28.762" data-original="#D72846" class="" data-old_color="#D72846"/>
</g><g>
	<ellipse style="fill:#FAC855;" cx="96.157" cy="352.923" rx="28.745" ry="28.762" data-original="#FAC855" class=""/>
	<ellipse style="fill:#FAC855;" cx="324.078" cy="352.923" rx="28.745" ry="28.762" data-original="#FAC855" class=""/>
</g><path style="fill:#B9B9BE;" d="M239.218,413.712h-57.201c-3.183,0-5.762-2.58-5.762-5.762v-15.353c0-3.183,2.58-5.762,5.762-5.762  h57.201c3.183,0,5.762,2.58,5.762,5.762v15.353C244.981,411.132,242.4,413.712,239.218,413.712z" data-original="#B9B9BE" class=""/><path style="fill:#D2D2D7;" d="M239.028,386.834h-56.822c-3.288,0-5.952,2.664-5.952,5.952v6.757c0-3.288,2.665-5.952,5.952-5.952  h56.822c3.288,0,5.952,2.664,5.952,5.952v-6.757C244.981,389.498,242.316,386.834,239.028,386.834z" data-original="#D2D2D7" class=""/><g>
	<ellipse style="fill:#FAF58C;" cx="324.078" cy="352.923" rx="16.297" ry="16.307" data-original="#FAF58C" class=""/>
	<ellipse style="fill:#FAF58C;" cx="96.157" cy="352.923" rx="16.297" ry="16.307" data-original="#FAF58C" class=""/>
</g><path style="fill:#C12020" d="M250.45,349.419h-79.664c-4.639,0-8.401,3.761-8.401,8.4s3.761,8.401,8.401,8.401h79.664  c4.639,0,8.402-3.761,8.402-8.401S255.089,349.419,250.45,349.419z" data-original="#E64B55" class="" data-old_color="#E64B55"/><path style="fill:#F75C66;" d="M297.997,304.463c-6.586,9.143-17.166,14.562-28.433,14.562H144.908  c-7.652,0-14.838-3.68-19.31-9.889l-23.96-33.267h216.953L297.997,304.463z" data-original="#F75C66" class=""/><g>
	<path style="fill:#FA870A" d="M35.929,404.209h21.698c3.661,0,6.629-2.967,6.629-6.629v-10.888c0-3.661-2.968-6.629-6.629-6.629   H35.918v20.604v3.101C35.918,403.916,35.927,404.062,35.929,404.209z" data-original="#FA870A" class="" data-old_color="#FA870A"/>
	<path style="fill:#FA870A" d="M384.298,404.209c0.004-0.184,0.014-0.366,0.014-0.551v-2.99v-20.604h-21.237   c-3.661,0-6.629,2.968-6.629,6.629v10.888c0,3.661,2.968,6.629,6.629,6.629H384.298z" data-original="#FA870A" class="" data-old_color="#FA870A"/>
</g><rect x="202.342" y="183.7" style="fill:#696E73;" width="16.554" height="9.301" data-original="#696E73"/></g> </svg>
